<?xml version="1.0" standalone="no"?>
<!DOCTYPE svg PUBLIC "-//W3C//DTD SVG 20010904//EN"
 "http://www.w3.org/TR/2001/REC-SVG-20010904/DTD/svg10.dtd">
<svg version="1.0" xmlns="http://www.w3.org/2000/svg"
 width="635.000000pt" height="546.000000pt" viewBox="0 0 635.000000 546.000000"
 preserveAspectRatio="xMidYMid meet">

<g transform="translate(0.000000,546.000000) scale(0.100000,-0.100000)"
fill="current" stroke="none">
<path d="M1410 5261 c-190 -41 -344 -124 -481 -261 -195 -195 -288 -432 -276
-705 6 -144 31 -242 93 -374 151 -320 417 -500 801 -541 79 -8 641 -10 2069
-8 l1960 3 41 27 c72 48 97 153 51 216 -13 17 -47 64 -76 104 -200 274 -255
621 -148 935 37 108 108 239 175 322 83 101 92 164 35 239 -52 67 109 62
-2126 61 -1919 0 -2038 -1 -2118 -18z m3800 -315 c0 -2 -13 -32 -29 -67 -41
-91 -78 -213 -93 -308 l-12 -81 -1762 0 -1761 0 -34 -23 c-108 -72 -107 -218
1 -281 35 -21 40 -21 1796 -24 l1762 -2 7 -55 c10 -87 52 -229 90 -312 19 -42
35 -80 35 -85 0 -5 -789 -7 -1847 -6 l-1848 3 -75 23 c-119 37 -187 78 -275
167 -124 124 -185 267 -185 437 0 100 14 166 56 257 77 168 227 294 406 341
71 18 134 19 1921 19 1016 1 1847 -1 1847 -3z"/>
<path d="M1172 3069 c-172 -22 -380 -106 -517 -210 -353 -266 -513 -705 -411
-1124 95 -388 348 -671 705 -790 177 -59 171 -58 781 -64 l565 -6 5 -325 c6
-360 7 -368 72 -408 53 -32 99 -37 150 -14 24 10 160 85 303 167 143 81 265
148 270 148 6 0 138 -73 295 -161 260 -148 288 -162 333 -162 61 0 110 23 140
64 21 30 22 40 27 361 l5 330 1062 5 c1052 5 1062 5 1090 26 35 25 73 98 73
139 0 37 -18 70 -92 172 -113 154 -200 358 -233 547 -22 128 -20 334 5 454 38
188 107 348 210 487 104 141 112 153 117 193 9 64 -44 146 -110 171 -34 13
-4746 13 -4845 0z m4476 -316 c-91 -177 -152 -350 -176 -500 l-17 -103 -2090
0 -2090 0 -39 -23 c-62 -35 -81 -68 -81 -140 0 -75 27 -120 89 -148 38 -17 75
-19 549 -19 l507 0 0 -305 0 -305 -494 0 c-536 0 -600 4 -741 51 -275 91 -461
314 -514 613 -42 232 42 481 219 657 118 118 270 195 428 218 71 11 4455 14
4450 4z m-2068 -1564 c0 -346 -3 -628 -7 -626 -5 2 -100 58 -213 123 -271 157
-239 157 -508 2 -112 -65 -205 -118 -208 -118 -2 0 -4 281 -4 625 l0 625 470
0 470 0 0 -631z m1892 528 c19 -120 74 -297 129 -416 22 -46 39 -85 39 -87 0
-2 -391 -4 -870 -4 l-870 0 0 305 0 305 778 0 777 0 17 -103z"/>
</g>
</svg>
